<mxfile host="app.diagrams.net" modified="2022-07-10T11:25:32.984Z" agent="5.0 (Windows NT 10.0; Win64; x64) AppleWebKit/537.36 (KHTML, like Gecko) Chrome/102.0.0.0 Safari/537.36" etag="PEKHgh5ekDUaBW5IQrpN" version="20.0.4" type="github">
  <diagram id="8HC0sRX0OQaIuiKmnEwp" name="第 1 页">
    <mxGraphModel dx="1718" dy="935" grid="1" gridSize="10" guides="1" tooltips="1" connect="1" arrows="1" fold="1" page="1" pageScale="1" pageWidth="827" pageHeight="1169" math="0" shadow="0">
      <root>
        <mxCell id="0" />
        <mxCell id="1" parent="0" />
        <mxCell id="Gh5zq7u7CxblD8nvOI0Q-4" value="" style="edgeStyle=orthogonalEdgeStyle;rounded=0;orthogonalLoop=1;jettySize=auto;html=1;" edge="1" parent="1" source="Gh5zq7u7CxblD8nvOI0Q-1" target="Gh5zq7u7CxblD8nvOI0Q-3">
          <mxGeometry relative="1" as="geometry" />
        </mxCell>
        <mxCell id="Gh5zq7u7CxblD8nvOI0Q-22" value="执行start" style="edgeLabel;html=1;align=center;verticalAlign=middle;resizable=0;points=[];" vertex="1" connectable="0" parent="Gh5zq7u7CxblD8nvOI0Q-4">
          <mxGeometry x="-0.2023" y="-1" relative="1" as="geometry">
            <mxPoint as="offset" />
          </mxGeometry>
        </mxCell>
        <mxCell id="Gh5zq7u7CxblD8nvOI0Q-1" value="START" style="rounded=1;whiteSpace=wrap;html=1;" vertex="1" parent="1">
          <mxGeometry x="90" y="290" width="120" height="60" as="geometry" />
        </mxCell>
        <mxCell id="Gh5zq7u7CxblD8nvOI0Q-6" value="" style="edgeStyle=orthogonalEdgeStyle;rounded=0;orthogonalLoop=1;jettySize=auto;html=1;" edge="1" parent="1" source="Gh5zq7u7CxblD8nvOI0Q-3" target="Gh5zq7u7CxblD8nvOI0Q-5">
          <mxGeometry relative="1" as="geometry" />
        </mxCell>
        <mxCell id="Gh5zq7u7CxblD8nvOI0Q-21" value="系统调度" style="edgeLabel;html=1;align=center;verticalAlign=middle;resizable=0;points=[];" vertex="1" connectable="0" parent="Gh5zq7u7CxblD8nvOI0Q-6">
          <mxGeometry x="-0.2023" y="-1" relative="1" as="geometry">
            <mxPoint as="offset" />
          </mxGeometry>
        </mxCell>
        <mxCell id="Gh5zq7u7CxblD8nvOI0Q-3" value="READY" style="rounded=1;whiteSpace=wrap;html=1;" vertex="1" parent="1">
          <mxGeometry x="290" y="290" width="120" height="60" as="geometry" />
        </mxCell>
        <mxCell id="Gh5zq7u7CxblD8nvOI0Q-8" value="" style="edgeStyle=orthogonalEdgeStyle;rounded=0;orthogonalLoop=1;jettySize=auto;html=1;" edge="1" parent="1" source="Gh5zq7u7CxblD8nvOI0Q-5" target="Gh5zq7u7CxblD8nvOI0Q-7">
          <mxGeometry relative="1" as="geometry" />
        </mxCell>
        <mxCell id="Gh5zq7u7CxblD8nvOI0Q-16" style="edgeStyle=none;rounded=0;orthogonalLoop=1;jettySize=auto;html=1;exitX=0.5;exitY=1;exitDx=0;exitDy=0;entryX=0.5;entryY=0;entryDx=0;entryDy=0;" edge="1" parent="1" source="Gh5zq7u7CxblD8nvOI0Q-5" target="Gh5zq7u7CxblD8nvOI0Q-13">
          <mxGeometry relative="1" as="geometry" />
        </mxCell>
        <mxCell id="Gh5zq7u7CxblD8nvOI0Q-24" value="调用sleep" style="edgeLabel;html=1;align=center;verticalAlign=middle;resizable=0;points=[];" vertex="1" connectable="0" parent="Gh5zq7u7CxblD8nvOI0Q-16">
          <mxGeometry x="-0.372" relative="1" as="geometry">
            <mxPoint as="offset" />
          </mxGeometry>
        </mxCell>
        <mxCell id="Gh5zq7u7CxblD8nvOI0Q-17" style="edgeStyle=none;rounded=0;orthogonalLoop=1;jettySize=auto;html=1;exitX=0.5;exitY=0;exitDx=0;exitDy=0;" edge="1" parent="1" source="Gh5zq7u7CxblD8nvOI0Q-5" target="Gh5zq7u7CxblD8nvOI0Q-11">
          <mxGeometry relative="1" as="geometry" />
        </mxCell>
        <mxCell id="Gh5zq7u7CxblD8nvOI0Q-23" value="调用wait" style="edgeLabel;html=1;align=center;verticalAlign=middle;resizable=0;points=[];" vertex="1" connectable="0" parent="Gh5zq7u7CxblD8nvOI0Q-17">
          <mxGeometry x="0.5397" y="-2" relative="1" as="geometry">
            <mxPoint as="offset" />
          </mxGeometry>
        </mxCell>
        <mxCell id="Gh5zq7u7CxblD8nvOI0Q-18" style="edgeStyle=none;rounded=0;orthogonalLoop=1;jettySize=auto;html=1;exitX=0;exitY=0.75;exitDx=0;exitDy=0;entryX=1;entryY=0.75;entryDx=0;entryDy=0;" edge="1" parent="1" source="Gh5zq7u7CxblD8nvOI0Q-5" target="Gh5zq7u7CxblD8nvOI0Q-3">
          <mxGeometry relative="1" as="geometry" />
        </mxCell>
        <mxCell id="Gh5zq7u7CxblD8nvOI0Q-20" value="yeild" style="edgeLabel;html=1;align=center;verticalAlign=middle;resizable=0;points=[];" vertex="1" connectable="0" parent="Gh5zq7u7CxblD8nvOI0Q-18">
          <mxGeometry x="0.4333" relative="1" as="geometry">
            <mxPoint as="offset" />
          </mxGeometry>
        </mxCell>
        <mxCell id="Gh5zq7u7CxblD8nvOI0Q-5" value="RUN" style="rounded=1;whiteSpace=wrap;html=1;" vertex="1" parent="1">
          <mxGeometry x="490" y="290" width="120" height="60" as="geometry" />
        </mxCell>
        <mxCell id="Gh5zq7u7CxblD8nvOI0Q-10" value="" style="edgeStyle=orthogonalEdgeStyle;rounded=0;orthogonalLoop=1;jettySize=auto;html=1;" edge="1" parent="1" source="Gh5zq7u7CxblD8nvOI0Q-7" target="Gh5zq7u7CxblD8nvOI0Q-9">
          <mxGeometry relative="1" as="geometry" />
        </mxCell>
        <mxCell id="Gh5zq7u7CxblD8nvOI0Q-27" value="run方法执行完成" style="edgeLabel;html=1;align=center;verticalAlign=middle;resizable=0;points=[];" vertex="1" connectable="0" parent="Gh5zq7u7CxblD8nvOI0Q-10">
          <mxGeometry x="-0.2454" relative="1" as="geometry">
            <mxPoint as="offset" />
          </mxGeometry>
        </mxCell>
        <mxCell id="Gh5zq7u7CxblD8nvOI0Q-19" style="edgeStyle=orthogonalEdgeStyle;rounded=0;orthogonalLoop=1;jettySize=auto;html=1;exitX=0.5;exitY=1;exitDx=0;exitDy=0;" edge="1" parent="1" source="Gh5zq7u7CxblD8nvOI0Q-7">
          <mxGeometry relative="1" as="geometry">
            <mxPoint x="350" y="350" as="targetPoint" />
            <Array as="points">
              <mxPoint x="820" y="560" />
              <mxPoint x="350" y="560" />
            </Array>
          </mxGeometry>
        </mxCell>
        <mxCell id="Gh5zq7u7CxblD8nvOI0Q-26" value="获取到锁，调用notify，调用unpark" style="edgeLabel;html=1;align=center;verticalAlign=middle;resizable=0;points=[];" vertex="1" connectable="0" parent="Gh5zq7u7CxblD8nvOI0Q-19">
          <mxGeometry x="0.1309" relative="1" as="geometry">
            <mxPoint as="offset" />
          </mxGeometry>
        </mxCell>
        <mxCell id="Gh5zq7u7CxblD8nvOI0Q-7" value="BLOCK" style="rounded=1;whiteSpace=wrap;html=1;" vertex="1" parent="1">
          <mxGeometry x="760" y="290" width="120" height="60" as="geometry" />
        </mxCell>
        <mxCell id="Gh5zq7u7CxblD8nvOI0Q-9" value="END" style="whiteSpace=wrap;html=1;rounded=1;" vertex="1" parent="1">
          <mxGeometry x="1020" y="290" width="120" height="60" as="geometry" />
        </mxCell>
        <mxCell id="Gh5zq7u7CxblD8nvOI0Q-14" style="edgeStyle=none;rounded=0;orthogonalLoop=1;jettySize=auto;html=1;exitX=1;exitY=0.5;exitDx=0;exitDy=0;entryX=0.5;entryY=0;entryDx=0;entryDy=0;" edge="1" parent="1" source="Gh5zq7u7CxblD8nvOI0Q-11" target="Gh5zq7u7CxblD8nvOI0Q-7">
          <mxGeometry relative="1" as="geometry" />
        </mxCell>
        <mxCell id="Gh5zq7u7CxblD8nvOI0Q-11" value="WAIT" style="rounded=1;whiteSpace=wrap;html=1;" vertex="1" parent="1">
          <mxGeometry x="490" y="140" width="120" height="60" as="geometry" />
        </mxCell>
        <mxCell id="Gh5zq7u7CxblD8nvOI0Q-15" style="edgeStyle=none;rounded=0;orthogonalLoop=1;jettySize=auto;html=1;exitX=0;exitY=0.5;exitDx=0;exitDy=0;entryX=0.5;entryY=1;entryDx=0;entryDy=0;" edge="1" parent="1" source="Gh5zq7u7CxblD8nvOI0Q-13" target="Gh5zq7u7CxblD8nvOI0Q-3">
          <mxGeometry relative="1" as="geometry" />
        </mxCell>
        <mxCell id="Gh5zq7u7CxblD8nvOI0Q-28" value="sleep时间到了" style="edgeLabel;html=1;align=center;verticalAlign=middle;resizable=0;points=[];" vertex="1" connectable="0" parent="Gh5zq7u7CxblD8nvOI0Q-15">
          <mxGeometry x="0.1366" y="-2" relative="1" as="geometry">
            <mxPoint as="offset" />
          </mxGeometry>
        </mxCell>
        <mxCell id="Gh5zq7u7CxblD8nvOI0Q-13" value="SLEEP" style="rounded=1;whiteSpace=wrap;html=1;" vertex="1" parent="1">
          <mxGeometry x="490" y="450" width="120" height="60" as="geometry" />
        </mxCell>
        <mxCell id="Gh5zq7u7CxblD8nvOI0Q-25" value="等待获取锁" style="text;html=1;strokeColor=none;fillColor=none;align=center;verticalAlign=middle;whiteSpace=wrap;rounded=0;" vertex="1" parent="1">
          <mxGeometry x="630" y="290" width="70" height="30" as="geometry" />
        </mxCell>
      </root>
    </mxGraphModel>
  </diagram>
</mxfile>
